<?xml version="1.0" encoding="utf-8"?><!-- Uploaded to: SVG Repo, www.svgrepo.com, Generator: SVG Repo Mixer Tools -->
<svg width="800px" height="800px" viewBox="0 0 146 146" xmlns="http://www.w3.org/2000/svg"><title>001-business</title><rect x="0.5" y="0.5" width="145" height="145" fill="none"/><path d="M93.8,94.6V125a0.8,0.8,0,0,1-.8.8H61V94.6H93.8Z" fill="#7bd489"/><path d="M60.2,94.6v31.2H29.8A0.8,0.8,0,0,1,29,125V94.6H60.2Z" fill="#ffffff"/><path d="M93,64.2V94.6H60.2V63.4h32A0.8,0.8,0,0,1,93,64.2Z" fill="#ffffff"/><path d="M60.2,63.4V94.6H29V64.2a0.8,0.8,0,0,1,.8-0.8H60.2Z" fill="#ffffff"/><rect x="29" y="35.4" width="64" height="19.2" rx="0.8" ry="0.8" fill="#a8cbeb"/><path d="M104.2,23.4V133a4.8,4.8,0,0,1-4.8,4.8H22.6a4.8,4.8,0,0,1-4.8-4.8V23.4a4.8,4.8,0,0,1,4.8-4.8H99.4A4.8,4.8,0,0,1,104.2,23.4ZM93,125V64.2a0.8,0.8,0,0,0-.8-0.8H29.8a0.8,0.8,0,0,0-.8.8V125a0.8,0.8,0,0,0,.8.8H92.2A0.8,0.8,0,0,0,93,125Zm0-70.4V37a0.8,0.8,0,0,0-.8-0.8H29.8a0.8,0.8,0,0,0-.8.8V54.6a0.8,0.8,0,0,0,.8.8H92.2A0.8,0.8,0,0,0,93,54.6Z" fill="#ffffff"/><rect x="17.8" y="18.6" width="86.4" height="119.2" rx="4.8" ry="4.8" fill="none" stroke="#515f76" stroke-miterlimit="10" stroke-width="2.4"/><polyline points="37.8 79.4 44.2 79.4 50.6 79.4" fill="none" stroke="#515f76" stroke-linecap="round" stroke-miterlimit="10" stroke-width="2.4"/><polyline points="44.2 85.8 44.2 79.4 44.2 73" fill="none" stroke="#515f76" stroke-linecap="round" stroke-miterlimit="10" stroke-width="2.4"/><line x1="70.6" y1="79.4" x2="83.4" y2="79.4" fill="none" stroke="#515f76" stroke-linecap="round" stroke-miterlimit="10" stroke-width="2.4"/><line x1="70.6" y1="106.6" x2="83.4" y2="106.6" fill="none" stroke="#515f76" stroke-linecap="round" stroke-miterlimit="10" stroke-width="2.4"/><line x1="70.6" y1="113" x2="83.4" y2="113" fill="none" stroke="#515f76" stroke-linecap="round" stroke-miterlimit="10" stroke-width="2.4"/><polyline points="39.95 115.38 44.48 110.86 49 106.33" fill="none" stroke="#515f76" stroke-linecap="round" stroke-miterlimit="10" stroke-width="2.4"/><polyline points="49 115.38 44.48 110.86 39.95 106.33" fill="none" stroke="#515f76" stroke-linecap="round" stroke-miterlimit="10" stroke-width="2.4"/><line x1="122.6" y1="5" x2="125.8" y2="8.2" fill="none" stroke="#7bd489" stroke-linecap="round" stroke-miterlimit="10" stroke-width="1.6"/><line x1="125.8" y1="5" x2="122.6" y2="8.2" fill="none" stroke="#7bd489" stroke-linecap="round" stroke-miterlimit="10" stroke-width="1.6"/><circle cx="135.8" cy="18.2" r="2" fill="none" stroke="#b8b9ba" stroke-linecap="round" stroke-miterlimit="10" stroke-width="1.6"/><circle cx="116.47" cy="26.48" r="1.6" fill="#b8b9ba"/><circle cx="21.8" cy="145.8" r="1.6" fill="#b8b9ba"/><line x1="12" y1="8" x2="12" y2="14" fill="none" stroke="#b8b9ba" stroke-linecap="round" stroke-miterlimit="10" stroke-width="2"/><line x1="15" y1="11" x2="9" y2="11" fill="none" stroke="#b8b9ba" stroke-linecap="round" stroke-miterlimit="10" stroke-width="2"/><circle cx="20.2" cy="3.4" r="1.6" fill="#b8b9ba"/><circle cx="10.2" cy="139" r="2" fill="none" stroke="#b8b9ba" stroke-linecap="round" stroke-miterlimit="10" stroke-width="1.6"/><rect x="29" y="35.4" width="64" height="19.2" rx="0.8" ry="0.8" fill="none" stroke="#515f76" stroke-miterlimit="10" stroke-width="2.4"/><path d="M66.47,99.28L93.8,97.8V94.6H61v31.2h3.2V101.67A2.4,2.4,0,0,1,66.47,99.28Z" fill="#a4e0b3"/><polyline points="61.8 63.4 61.8 94.6 61.8 125.8" fill="none" stroke="#515f76" stroke-miterlimit="10" stroke-width="2.4"/><path d="M29,126.6a0.8,0.8,0,0,1-.8-0.8V63.4H27.4A1.6,1.6,0,0,0,25.8,65v63.2a1.6,1.6,0,0,0,1.6,1.6l64,1.56a1.6,1.6,0,0,0,1.64-1.6V126.6H29Z" fill="#c3c7cd"/><path d="M93,94.6V125a0.8,0.8,0,0,1-.8.8H29.8A0.8,0.8,0,0,1,29,125V64.2a0.8,0.8,0,0,1,.8-0.8H92.2a0.8,0.8,0,0,1,.8.8V94.6Z" fill="none" stroke="#515f76" stroke-miterlimit="10" stroke-width="2.4"/><polyline points="93 94.6 60.2 94.6 29 94.6" fill="none" stroke="#515f76" stroke-miterlimit="10" stroke-width="2.4"/><polygon points="128.33 124.67 123.53 135.88 120.33 135.88 115.53 124.67 128.33 124.67" fill="#ffffff"/><rect x="115.53" y="70.27" width="12.8" height="7.2" fill="#ea9080"/><polygon points="115.53 111.08 115.53 101.47 115.53 93.47 115.53 82.28 115.53 77.47 128.33 77.47 128.33 82.28 128.33 93.47 128.33 111.08 128.33 124.67 115.53 124.67 115.53 111.08" fill="#ea9080"/><path d="M128.33,124.67l-4.87,11.12c-0.28.64-2.79,0.64-3.07,0l-4.87-11.12" fill="none" stroke="#515f76" stroke-linecap="round" stroke-miterlimit="10" stroke-width="2.4"/><path d="M128.33,24.67v4.8h-12.8v-4.8a3.2,3.2,0,0,1,3.2-3.2h6.4A3.2,3.2,0,0,1,128.33,24.67Z" fill="#ea9080"/><polygon points="128.33 56.67 128.33 70.28 115.53 70.28 115.53 56.67 115.53 29.48 127.53 29.48 128.33 29.48 128.33 56.67" fill="#ea9080"/><path d="M124.33,22.27h0v103.2h3.2v-100A3.2,3.2,0,0,0,124.33,22.27Z" fill="#eeb8a9" opacity="0.8"/><line x1="128.33" y1="31.07" x2="116.33" y2="31.07" fill="none" stroke="#515f76" stroke-linecap="round" stroke-miterlimit="10" stroke-width="2.4"/><line x1="128.33" y1="77.47" x2="115.53" y2="77.47" fill="none" stroke="#515f76" stroke-miterlimit="10" stroke-width="2.4"/><line x1="115.53" y1="69.47" x2="128.33" y2="69.47" fill="none" stroke="#515f76" stroke-miterlimit="10" stroke-width="2.4"/><path d="M128.33,124.67h-12.8V26.27a4.8,4.8,0,0,1,4.8-4.8h3.2a4.8,4.8,0,0,1,4.8,4.8v98.4Z" fill="none" stroke="#515f76" stroke-linecap="round" stroke-linejoin="round" stroke-width="2.4"/><circle cx="133.8" cy="0.2" r="1.6" fill="#b8b9ba"/><circle cx="114.46" cy="145.8" r="1.6" fill="#b8b9ba"/></svg>